<?xml version="1.0" standalone="no"?>
<!DOCTYPE svg PUBLIC "-//W3C//DTD SVG 20010904//EN"
 "http://www.w3.org/TR/2001/REC-SVG-20010904/DTD/svg10.dtd">
<svg version="1.0" xmlns="http://www.w3.org/2000/svg"
 width="1203.000000pt" height="207.000000pt" viewBox="0 0 1203.000000 207.000000"
 preserveAspectRatio="xMidYMid meet">

<g transform="translate(0.000000,207.000000) scale(0.100000,-0.100000)"
fill="#ffffff" stroke="none">
<path d="M564 2055 c-276 -50 -472 -209 -542 -440 -24 -79 -30 -983 -7 -1110
36 -201 170 -355 385 -442 127 -52 164 -55 765 -51 l550 3 56 26 c69 33 132
88 167 148 22 38 27 60 30 139 4 73 1 96 -9 103 -15 10 -178 11 -216 2 -20 -5
-23 -11 -23 -57 0 -68 -16 -123 -40 -136 -27 -14 -1082 -13 -1134 1 -122 34
-225 118 -262 214 -18 47 -19 81 -19 590 l0 540 24 49 c29 58 110 140 161 163
100 44 122 46 676 50 l531 5 29 -25 29 -25 2 -421 c3 -395 2 -421 -15 -421 -9
0 -28 10 -42 23 -14 12 -126 103 -250 202 -123 99 -256 207 -295 240 -201 170
-240 195 -294 195 -61 0 -108 -31 -120 -78 -11 -46 -13 -1052 -2 -1070 6 -9
38 -12 127 -10 l119 3 3 393 c1 215 6 392 10 392 4 0 37 -23 73 -52 35 -29
145 -118 245 -198 99 -80 232 -188 295 -241 63 -52 136 -112 163 -132 80 -61
144 -61 203 -2 l33 33 0 571 c0 548 -1 572 -20 624 -22 59 -80 124 -145 162
-89 52 -122 55 -666 54 -366 -1 -524 -4 -575 -14z"/>
<path d="M7595 1380 l-370 -5 -3 -393 -2 -392 26 -10 c14 -6 47 -10 74 -10
l49 0 6 53 c4 29 5 176 3 327 l-3 275 253 3 252 2 0 -318 c0 -234 3 -321 12
-330 17 -17 123 -16 137 2 8 9 10 125 9 407 l-3 394 -35 0 c-19 1 -201 -2
-405 -5z"/>
<path d="M8237 1382 c-26 -5 -28 -29 -25 -262 l3 -215 333 -3 332 -2 0 -84 0
-84 -132 -7 c-73 -4 -223 -6 -333 -4 l-200 4 -3 -65 c-2 -52 0 -67 14 -77 14
-10 108 -13 410 -13 l392 0 6 22 c8 33 7 441 -2 454 -5 7 -114 11 -332 11
l-325 1 -3 86 -3 86 326 0 325 0 10 26 c12 31 13 94 1 113 -7 11 -80 14 -393
15 -211 0 -392 0 -401 -2z"/>
<path d="M9233 1382 l-23 -3 0 -393 c0 -303 3 -396 13 -403 7 -7 160 -10 407
-9 l395 1 3 403 c2 318 0 402 -10 403 -44 2 -767 3 -785 1z m642 -399 c0 -133
-3 -244 -7 -248 -3 -3 -114 -9 -246 -12 -229 -6 -240 -5 -250 13 -8 16 -9 141
-3 437 l1 57 253 -2 252 -3 0 -242z"/>
<path d="M10220 1380 c-15 -9 -25 -761 -11 -788 11 -21 18 -23 79 -20 l67 3 3
162 2 163 163 2 162 3 3 73 c2 53 0 72 -10 73 -7 0 -80 2 -163 2 l-150 2 -3
88 -3 87 320 0 c277 0 322 2 335 16 20 19 22 122 4 129 -20 6 -788 11 -798 5z"/>
<path d="M11210 1382 c-14 -5 -12 -126 2 -140 8 -8 59 -12 165 -12 l153 0 2
-42 c2 -24 3 -171 3 -328 l0 -285 63 -3 c38 -2 69 2 78 9 12 9 14 68 14 330
l0 319 163 2 162 3 0 73 0 73 -398 2 c-218 1 -402 1 -407 -1z"/>
<path d="M2250 981 c0 -446 -6 -411 75 -411 81 0 75 -26 75 336 l0 324 255 0
255 0 0 -317 c0 -175 4 -324 9 -332 6 -10 25 -12 70 -9 33 2 64 8 68 12 11 11
16 479 8 654 l-7 142 -404 0 -404 0 0 -399z"/>
<path d="M3247 1373 c-4 -3 -7 -180 -7 -393 0 -287 3 -389 12 -398 9 -9 107
-12 383 -11 203 1 381 4 395 8 23 6 25 12 28 74 l3 67 -323 0 c-178 0 -329 4
-336 9 -10 6 -13 29 -10 87 l3 79 154 3 c96 1 160 7 168 14 10 8 13 30 11 72
l-3 61 -165 5 -165 5 -3 65 c-2 35 -1 75 3 87 l5 23 328 2 327 3 0 70 0 70
-401 3 c-220 1 -403 -1 -407 -5z"/>
<path d="M4240 981 c0 -354 2 -400 16 -405 9 -3 188 -6 399 -6 370 0 385 1
395 19 14 27 14 745 0 772 -9 16 -22 19 -75 19 -36 0 -66 -1 -67 -2 -1 -2 -4
-149 -7 -328 l-6 -325 -250 0 -250 0 -3 328 -2 327 -75 0 -75 0 0 -399z"/>
<path d="M5237 1373 c-10 -9 -8 -115 1 -130 6 -9 55 -13 167 -15 l160 -3 5
-325 5 -325 52 -3 c99 -6 93 -27 93 338 l0 320 163 2 162 3 3 49 c2 27 1 60
-3 73 l-5 23 -399 0 c-219 0 -401 -3 -404 -7z"/>
<path d="M6237 1373 c-4 -3 -7 -183 -7 -399 0 -348 2 -393 16 -398 28 -11 782
-7 789 4 5 8 8 507 5 768 l0 32 -398 0 c-219 0 -402 -3 -405 -7z m651 -395
l-3 -253 -250 0 -250 0 -3 253 -2 252 255 0 255 0 -2 -252z"/>
</g>
</svg>
