<svg viewBox="0 0 16.933 16.933" xmlns="http://www.w3.org/2000/svg"><path d="M8.008.54C6.213.667 4.705 1.826 4.009 3.429A3.304 3.304 0 0 0 1.16 4.85a3.559 3.559 0 0 0-.204 3.708.786.786 0 0 0-.425.702v3.559c0 .485.167 1.06.478 1.534a.789.789 0 0 0-.477.727l-.002 1.324H6.35V15.08a.787.787 0 0 0-.45-.715c.266-.302.514-.649.723-1.004.3-.509.521-1.045.521-1.459 0-.09-.03-.194-.066-.29a3.48 3.48 0 0 0-.139-.315 11.768 11.768 0 0 0-.396-.727c-.056-.095-.1-.164-.153-.253h1.268l.59.677c.05.074.133.114.219.114s.169-.04.219-.114l.59-.677h3.205l-.774.886a.265.265 0 0 0 .2.44h.792v1.322h2.118l-.001-1.323h.795a.265.265 0 0 0 .197-.44L14.8 10.05a2.845 2.845 0 0 0 1.51-1.86c.324-1.25-.202-2.571-1.29-3.222A2.703 2.703 0 0 0 13 4.655C12.641 2.325 10.725.6 8.47.531a4.591 4.591 0 0 0-.462.01zm4.48 4.294c-.301.14-.583.338-.826.59-.25.254.136.626.381.368a2.18 2.18 0 0 1 2.705-.371c.88.527 1.315 1.608 1.05 2.636a2.304 2.304 0 0 1-1.363 1.575l-.478-.547a.265.265 0 0 0-.211-.089.265.265 0 0 0-.188.09l-.614.702H9.738c.693-.795 1.386-1.592 2.063-2.405a.453.453 0 0 0 .027-.543L10.67 5.252a.536.536 0 0 0-.433-.225h-3.54a.536.536 0 0 0-.433.225L5.106 6.84a.452.452 0 0 0 .027.543c.677.813 1.37 1.61 2.063 2.405H6.065a16.293 16.293 0 0 1-.092-.145.824.824 0 0 0-.681-.385.788.788 0 0 0-.793-.792.785.785 0 0 0-.53.201.782.782 0 0 0-.529-.2.782.782 0 0 0-.529.2.767.767 0 0 0-.529-.2.783.783 0 0 0-.529.2.801.801 0 0 0-.323-.175 3.018 3.018 0 0 1 .063-3.339 2.77 2.77 0 0 1 2.224-1.2 5.062 5.062 0 0 0-.219 1.47c0 .353.53.353.53 0 0-2.303 1.721-4.2 3.917-4.353.138-.01.274-.013.409-.009 2.025.062 3.755 1.633 4.034 3.773zM8.467 2.91a.26.26 0 0 0-.265.263v.53c0 .176.133.264.265.264s.264-.088.264-.265v-.529a.26.26 0 0 0-.264-.263zm-1.431.419a.265.265 0 0 0-.19.452l.376.373c.26.243.616-.123.375-.373l-.375-.375a.252.252 0 0 0-.186-.077zm2.862 0a.252.252 0 0 0-.186.077l-.375.375c-.241.25.114.616.375.373l.375-.373a.265.265 0 0 0-.19-.452zm-1.85 2.226h.837l.528 1.322H7.521ZM5.844 7.408h1.128l.783 2.216a171.169 171.169 0 0 1-1.91-2.216Zm4.117 0h1.128c-.627.744-1.269 1.48-1.91 2.216ZM1.323 8.994c.106 0 .264.08.264.266v1.324c0 .151-.12.266-.264.266a.267.267 0 0 1-.263-.266V9.26c0-.152.127-.266.263-.266zm1.322.266v1.324a.263.263 0 1 1-.527 0V9.26c0-.158.127-.264.264-.264.136 0 .263.107.263.264zm1.058 0v1.324a.263.263 0 1 1-.527 0V9.26c0-.152.122-.264.264-.264.142 0 .263.113.263.264zm1.06 0v.198a.732.732 0 0 0-.224.388c-.042.188-.018.378.043.554l.121.35a.263.263 0 0 1-.205.097.262.262 0 0 1-.265-.263V9.26c0-.152.124-.263.266-.263.143 0 .264.111.264.263Zm.764.668s.28.433.56.91c.139.238.277.488.378.693.05.103.091.196.117.266.026.07.026.078.033.105 0 .27-.172.725-.447 1.192a5.94 5.94 0 0 1-.92 1.193h-3.63a2.394 2.394 0 0 1-.56-1.468v-1.487c.084.03.172.045.265.045.207 0 .39-.076.53-.201.139.125.322.2.529.2.207 0 .39-.075.529-.2.14.125.322.2.529.2a.79.79 0 0 0 .53-.2c.14.126.324.2.528.2a.792.792 0 0 0 .388-.1l.089.256c-.199.147-.795.608-.997 1.36-.086.354.436.464.51.135.187-.706.9-1.14.936-1.16a.264.264 0 0 0 .117-.316l-.459-1.324a.51.51 0 0 1-.025-.266c.016-.059.037-.104.101-.14a.253.253 0 0 1 .097-.033c.1-.012.206.037.272.14zm3.797 1.54-1.587 1.854a.265.265 0 0 0 .2.436h.793v.794h1.588v-.794h.796a.265.265 0 0 0 .199-.436l-1.586-1.854a.264.264 0 0 0-.211-.091.265.265 0 0 0-.192.091zm4.963 2.29v.265c0 .353.53.353.53 0v-.264c0-.177-.133-.265-.265-.265s-.264.088-.265.265zm-1.322 0c-.133 0-.265.089-.265.265v.265c0 .353.529.353.53 0v-.265c0-.176-.133-.265-.265-.265Zm.529 1.06v.264c0 .353.529.353.529 0v-.265c0-.177-.132-.265-.265-.265-.132 0-.264.088-.264.265zm-3.44.263c-.132 0-.265.089-.265.265v.265c0 .353.53.353.53 0v-.265c0-.176-.132-.265-.265-.265zm-1.323.53v.264c0 .354.53.354.53 0v-.264c0-.177-.133-.265-.265-.265s-.264.088-.265.265z" style="line-height:normal;font-variant-ligatures:normal;font-variant-position:normal;font-variant-caps:normal;font-variant-numeric:normal;font-variant-alternates:normal;font-feature-settings:normal;text-indent:0;text-align:start;text-decoration-line:none;text-decoration-style:solid;text-decoration-color:#000;text-transform:none;text-orientation:mixed;white-space:normal;shape-padding:0;isolation:auto;mix-blend-mode:normal;solid-color:#000;solid-opacity:1" color="#000000" font-style="normal" font-variant="normal" font-weight="400" font-stretch="normal" font-size="medium" font-family="sans-serif" text-decoration="none" letter-spacing="normal" word-spacing="normal" writing-mode="lr-tb" direction="ltr" dominant-baseline="auto" baseline-shift="baseline" text-anchor="start" clip-rule="nonzero" display="inline" overflow="visible" visibility="visible" opacity="1" color-interpolation="sRGB" color-interpolation-filters="linearRGB" vector-effect="none" fill="#4d520b" fill-opacity="1" fill-rule="nonzero" stroke="none" stroke-width=".529167" stroke-linecap="round" stroke-linejoin="miter" stroke-miterlimit="4" stroke-dasharray="none" stroke-dashoffset="0" stroke-opacity="1" color-rendering="auto" image-rendering="auto" shape-rendering="auto" text-rendering="auto" enable-background="accumulate" class="fill-000000"></path></svg>